<svg xmlns="http://www.w3.org/2000/svg" xmlns:xlink="http://www.w3.org/1999/xlink" width="256" zoomAndPan="magnify" viewBox="0 0 192 191.999996" height="256" preserveAspectRatio="xMidYMid meet" version="1.0"><defs><clipPath id="9218f24bca"><path d="M 153 66 L 156.523438 66 L 156.523438 70 L 153 70 Z M 153 66 " clip-rule="nonzero"/></clipPath><clipPath id="805f45e7c3"><path d="M 153 74 L 156.523438 74 L 156.523438 78 L 153 78 Z M 153 74 " clip-rule="nonzero"/></clipPath><clipPath id="d70a392d92"><path d="M 153 86 L 156.523438 86 L 156.523438 90 L 153 90 Z M 153 86 " clip-rule="nonzero"/></clipPath><clipPath id="7c666622c1"><path d="M 105 125 L 109 125 L 109 128.25 L 105 128.25 Z M 105 125 " clip-rule="nonzero"/></clipPath><clipPath id="78324aaf55"><path d="M 94.273438 120 L 98 120 L 98 125 L 94.273438 125 Z M 94.273438 120 " clip-rule="nonzero"/></clipPath><clipPath id="99e5c00f88"><path d="M 106 123 L 112 123 L 112 128.25 L 106 128.25 Z M 106 123 " clip-rule="nonzero"/></clipPath><clipPath id="44682b1119"><path d="M 94.273438 43 L 129 43 L 129 111 L 94.273438 111 Z M 94.273438 43 " clip-rule="nonzero"/></clipPath><clipPath id="c346001f76"><path d="M 65.257812 67 L 106 67 L 106 91.808594 L 65.257812 91.808594 Z M 65.257812 67 " clip-rule="nonzero"/></clipPath><clipPath id="68db09257e"><path d="M 116 66.308594 L 123 66.308594 L 123 74 L 116 74 Z M 116 66.308594 " clip-rule="nonzero"/></clipPath><clipPath id="1a66511928"><path d="M 86 66.308594 L 120 66.308594 L 120 83 L 86 83 Z M 86 66.308594 " clip-rule="nonzero"/></clipPath><clipPath id="251079fb50"><path d="M 86 66.308594 L 123.007812 66.308594 L 123.007812 84 L 86 84 Z M 86 66.308594 " clip-rule="nonzero"/></clipPath><clipPath id="d21e7d6bff"><path d="M 34.679688 77 L 38 77 L 38 81 L 34.679688 81 Z M 34.679688 77 " clip-rule="nonzero"/></clipPath><clipPath id="d171e63cdb"><path d="M 94 120 L 94.679688 120 L 94.679688 125 L 94 125 Z M 94 120 " clip-rule="nonzero"/></clipPath><clipPath id="acc1da814e"><path d="M 60 43 L 94.679688 43 L 94.679688 111 L 60 111 Z M 60 43 " clip-rule="nonzero"/></clipPath><clipPath id="0b2becacb9"><path d="M 61.875 44.542969 L 127 44.542969 L 127 109.042969 L 61.875 109.042969 Z M 61.875 44.542969 " clip-rule="nonzero"/></clipPath><clipPath id="ce7a440967"><path d="M 94.324219 44.542969 C 76.402344 44.542969 61.875 59.035156 61.875 76.910156 C 61.875 94.785156 76.402344 109.273438 94.324219 109.273438 C 112.246094 109.273438 126.773438 94.785156 126.773438 76.910156 C 126.773438 59.035156 112.246094 44.542969 94.324219 44.542969 Z M 94.324219 44.542969 " clip-rule="nonzero"/></clipPath><clipPath id="fdc28c31e2"><path d="M 61.875 44.542969 L 127 44.542969 L 127 110 L 61.875 110 Z M 61.875 44.542969 " clip-rule="nonzero"/></clipPath><clipPath id="9078afe760"><path d="M 94 110 L 95 110 L 95 111.292969 L 94 111.292969 Z M 94 110 " clip-rule="nonzero"/></clipPath><clipPath id="046528eca9"><path d="M 94 76 L 128.625 76 L 128.625 111.292969 L 94 111.292969 Z M 94 76 " clip-rule="nonzero"/></clipPath><clipPath id="37019a253d"><path d="M 127 75 L 128.625 75 L 128.625 76 L 127 76 Z M 127 75 " clip-rule="nonzero"/></clipPath></defs><rect x="-19.2" width="230.4" fill="#ffffff" y="-19.2" height="230.399995" fill-opacity="1"/><rect x="-19.2" width="230.4" fill="#ffffff" y="-19.2" height="230.399995" fill-opacity="1"/><path fill="#38b6ff" d="M 143.257812 76.367188 C 143.257812 76.367188 143.242188 76.367188 143.234375 76.367188 L 128.078125 75.675781 C 127.828125 75.664062 127.632812 75.453125 127.644531 75.207031 C 127.660156 74.957031 127.867188 74.761719 128.117188 74.773438 L 143.277344 75.464844 C 143.527344 75.476562 143.71875 75.6875 143.707031 75.933594 C 143.695312 76.175781 143.496094 76.367188 143.253906 76.367188 Z M 143.257812 76.367188 " fill-opacity="1" fill-rule="nonzero"/><path fill="#38b6ff" d="M 143.109375 77.4375 C 143.953125 77.472656 144.667969 76.820312 144.707031 75.980469 C 144.746094 75.136719 144.09375 74.417969 143.25 74.382812 C 142.40625 74.34375 141.691406 74.996094 141.652344 75.839844 C 141.617188 76.683594 142.269531 77.398438 143.109375 77.4375 Z M 143.109375 77.4375 " fill-opacity="1" fill-rule="nonzero"/><path fill="#38b6ff" d="M 150.683594 79.632812 L 150.679688 79.632812 L 127.667969 79.261719 C 127.417969 79.257812 127.21875 79.050781 127.222656 78.800781 C 127.230469 78.554688 127.429688 78.355469 127.675781 78.355469 L 127.683594 78.355469 L 150.691406 78.726562 C 150.941406 78.730469 151.140625 78.9375 151.136719 79.1875 C 151.132812 79.433594 150.933594 79.632812 150.683594 79.632812 Z M 150.683594 79.632812 " fill-opacity="1" fill-rule="nonzero"/><path fill="#38b6ff" d="M 151.933594 78.417969 C 152.035156 78.59375 152.097656 78.78125 152.125 78.984375 C 152.148438 79.183594 152.136719 79.382812 152.082031 79.578125 C 152.03125 79.773438 151.941406 79.953125 151.816406 80.113281 C 151.695312 80.273438 151.542969 80.402344 151.367188 80.503906 C 151.191406 80.605469 151.003906 80.667969 150.800781 80.695312 C 150.601562 80.71875 150.402344 80.707031 150.207031 80.652344 C 150.011719 80.601562 149.832031 80.511719 149.671875 80.386719 C 149.511719 80.265625 149.382812 80.113281 149.28125 79.9375 C 149.179688 79.761719 149.117188 79.574219 149.089844 79.371094 C 149.066406 79.171875 149.078125 78.972656 149.132812 78.777344 C 149.1875 78.582031 149.273438 78.402344 149.398438 78.242188 C 149.523438 78.082031 149.671875 77.953125 149.847656 77.851562 C 150.023438 77.75 150.210938 77.6875 150.414062 77.660156 C 150.613281 77.636719 150.8125 77.648438 151.007812 77.703125 C 151.203125 77.757812 151.382812 77.84375 151.542969 77.96875 C 151.703125 78.09375 151.832031 78.242188 151.933594 78.417969 Z M 151.933594 78.417969 " fill-opacity="1" fill-rule="nonzero"/><path fill="#38b6ff" d="M 145.050781 83.679688 C 145.050781 83.679688 145.042969 83.679688 145.039062 83.679688 L 126.882812 83.140625 C 126.632812 83.132812 126.433594 82.921875 126.441406 82.671875 C 126.449219 82.429688 126.652344 82.234375 126.894531 82.234375 C 126.898438 82.234375 126.902344 82.234375 126.910156 82.234375 L 145.066406 82.777344 C 145.316406 82.785156 145.511719 82.992188 145.503906 83.242188 C 145.496094 83.488281 145.296875 83.679688 145.050781 83.679688 Z M 145.050781 83.679688 " fill-opacity="1" fill-rule="nonzero"/><path fill="#38b6ff" d="M 144.929688 84.753906 C 145.773438 84.78125 146.476562 84.117188 146.503906 83.273438 C 146.527344 82.429688 145.863281 81.722656 145.019531 81.699219 C 144.175781 81.671875 143.472656 82.335938 143.445312 83.179688 C 143.421875 84.023438 144.085938 84.730469 144.929688 84.753906 Z M 144.929688 84.753906 " fill-opacity="1" fill-rule="nonzero"/><path fill="#38b6ff" d="M 143.917969 76.679688 C 143.78125 76.679688 143.644531 76.617188 143.554688 76.5 C 143.40625 76.296875 143.445312 76.015625 143.648438 75.867188 L 154.390625 67.847656 C 154.59375 67.699219 154.875 67.738281 155.023438 67.9375 C 155.171875 68.140625 155.132812 68.421875 154.933594 68.570312 L 144.1875 76.589844 C 144.105469 76.648438 144.011719 76.679688 143.917969 76.679688 Z M 143.917969 76.679688 " fill-opacity="1" fill-rule="nonzero"/><g clip-path="url(#9218f24bca)"><path fill="#38b6ff" d="M 155.515625 69.480469 C 156.191406 68.976562 156.332031 68.019531 155.824219 67.339844 C 155.320312 66.664062 154.363281 66.523438 153.683594 67.03125 C 153.007812 67.535156 152.871094 68.492188 153.375 69.171875 C 153.878906 69.847656 154.835938 69.988281 155.515625 69.480469 Z M 155.515625 69.480469 " fill-opacity="1" fill-rule="nonzero"/></g><path fill="#38b6ff" d="M 151.28125 79.726562 C 151.144531 79.726562 151.011719 79.667969 150.921875 79.550781 C 150.769531 79.355469 150.804688 79.070312 151.003906 78.917969 L 154.929688 75.882812 C 155.125 75.730469 155.410156 75.769531 155.5625 75.964844 C 155.714844 76.164062 155.679688 76.445312 155.480469 76.597656 L 151.554688 79.632812 C 151.472656 79.695312 151.375 79.726562 151.28125 79.726562 Z M 151.28125 79.726562 " fill-opacity="1" fill-rule="nonzero"/></svg>
